<svg xmlns="http://www.w3.org/2000/svg" viewBox="0 0 500 500"><circle cx="250" cy="11.4" r="11.4"/><ellipse transform="rotate(-60 369.326 43.34)" cx="369.3" cy="43.3" rx="11.4" ry="11.4"/><ellipse transform="rotate(-30 456.653 130.702)" cx="456.7" cy="130.7" rx="11.4" ry="11.4"/><circle cx="488.6" cy="250" r="11.4"/><ellipse transform="rotate(-60 456.67 369.332)" cx="456.7" cy="369.3" rx="11.4" ry="11.4"/><ellipse transform="rotate(-30 369.292 456.677)" cx="369.3" cy="456.7" rx="11.4" ry="11.4"/><circle cx="250" cy="488.6" r="11.4"/><ellipse transform="rotate(-60 130.679 456.677)" cx="130.7" cy="456.7" rx="11.4" ry="11.4"/><ellipse transform="rotate(-30 43.317 369.316)" cx="43.3" cy="369.3" rx="11.4" ry="11.4"/><circle cx="11.4" cy="250" r="11.4"/><ellipse transform="rotate(-60 43.334 130.685)" cx="43.3" cy="130.7" rx="11.4" ry="11.4"/><ellipse transform="rotate(-30 130.678 43.34)" cx="130.7" cy="43.3" rx="11.4" ry="11.4"/></svg>