<?xml version="1.0" encoding="utf-8"?>
<!-- Generator: Adobe Illustrator 21.0.0, SVG Export Plug-In . SVG Version: 6.00 Build 0)  -->
<svg version="1.1" id="Layer_1" xmlns="http://www.w3.org/2000/svg" xmlns:xlink="http://www.w3.org/1999/xlink" x="0px" y="0px"
	 viewBox="0 0 500 500" style="enable-background:new 0 0 500 500;" xml:space="preserve">
<g>
	<g>
		<circle cx="250" cy="11.4" r="11.4"/>
	</g>
	<g>
		<ellipse transform="matrix(0.5 -0.866 0.866 0.5 147.13 341.5063)" cx="369.3" cy="43.3" rx="11.4" ry="11.4"/>
	</g>
	<g>
		<ellipse transform="matrix(0.866 -0.5 0.5 0.866 -4.1594 245.8406)" cx="456.7" cy="130.7" rx="11.4" ry="11.4"/>
	</g>
	<g>
		<circle cx="488.6" cy="250" r="11.4"/>
	</g>
	<g>
		<ellipse transform="matrix(0.5 -0.866 0.866 0.5 -91.5063 580.1427)" cx="456.7" cy="369.3" rx="11.4" ry="11.4"/>
	</g>
	<g>
		<ellipse transform="matrix(0.866 -0.5 0.5 0.866 -178.8533 245.8406)" cx="369.3" cy="456.7" rx="11.4" ry="11.4"/>
	</g>
	<g>
		<circle cx="250" cy="488.6" r="11.4"/>
	</g>
	<g>
		<ellipse transform="matrix(0.5 -0.866 0.866 0.5 -330.1427 341.5063)" cx="130.7" cy="456.7" rx="11.4" ry="11.4"/>
	</g>
	<g>
		<ellipse transform="matrix(0.866 -0.5 0.5 0.866 -178.8533 71.1467)" cx="43.3" cy="369.3" rx="11.4" ry="11.4"/>
	</g>
	<g>
		<circle cx="11.4" cy="250" r="11.4"/>
	</g>
	<g>
		<ellipse transform="matrix(0.5 -0.866 0.866 0.5 -91.5063 102.87)" cx="43.3" cy="130.7" rx="11.4" ry="11.4"/>
	</g>
	<g>
		<ellipse transform="matrix(0.866 -0.5 0.5 0.866 -4.1594 71.1467)" cx="130.7" cy="43.3" rx="11.4" ry="11.4"/>
	</g>
</g>
</svg>
